<svg width="212" height="36" viewBox="0 0 212 36" fill="none" xmlns="http://www.w3.org/2000/svg">
<g clip-path="url(#clip0_4694_497)">
<path d="M0 13.7038H4.48562V13.4835C4.48562 3.30477 8.70994 0 16.4618 0C24.2136 0 20.9039 0.220318 23.4733 0.660955V4.67075C21.0345 4.18605 18.9006 3.92167 17.0279 3.92167C11.9762 3.92167 9.05834 6.08078 9.05834 12.9107V13.7479H19.728V17.4492H9.05834V35.295H4.48562V17.4492H0.0435497V13.7479L0 13.7038Z" fill="#F3F3E9"/>
<path d="M31.7046 0.749023H27.1318V35.2509H31.7046V0.749023Z" fill="#F3F3E9"/>
<path d="M45.8581 35.5149C39.8047 33.9286 36.3643 28.7732 36.3643 22.0755C36.3643 15.3778 41.3725 8.15137 49.8211 8.15137C58.2698 8.15137 63.2344 13.8796 63.2344 22.0755C63.2344 30.2713 63.1909 23.6177 63.1038 24.4109L57.4859 28.0241C57.3552 28.1122 57.2246 27.98 57.2681 27.8478C58.052 26.1734 58.4004 24.2787 58.4004 22.0755C58.4004 15.8625 55.3955 11.6765 49.734 11.6765C44.0726 11.6765 41.2418 15.7303 41.2418 22.0755C41.2418 28.4206 44.7694 32.6067 50.0824 32.4745C50.2566 32.4745 50.3002 32.6508 50.1695 32.7389L45.8581 35.5149Z" fill="#F3F3E9"/>
<path d="M65.9336 8.85645H70.8983L75.079 29.4342H75.1226L81.4373 8.85645H85.9665L92.3247 29.4342H92.3683L96.549 8.85645H101.514L95.8087 35.2506H90.2343L83.789 14.3644H83.6583L77.2565 35.2506H71.6386L65.9336 8.85645Z" fill="#F3F3E9"/>
<path d="M112.62 35.9997C107.873 35.9997 103.866 32.2102 103.866 24.5431C103.866 16.8761 106.915 11.324 114.579 9.20898L118.586 11.7647C118.717 11.8528 118.673 12.0291 118.542 12.0291C111.575 12.6459 108.744 18.9471 108.787 24.3228C108.787 28.5529 110.529 32.2102 113.665 32.2102C116.8 32.2102 119.98 29.302 122.68 24.3228V14.8051C122.68 14.6288 122.81 14.5847 122.941 14.6729L127.296 17.4489V27.4513C127.296 30.712 127.601 33.3118 128.298 35.2065H123.725C123.42 33.9728 123.159 32.2983 122.985 30.2714C120.067 33.9287 116.191 35.9556 112.75 35.9556L112.62 35.9997Z" fill="#F3F3E9"/>
<path d="M142.799 23.4422H141.014V22.7812H145.586V23.4422H143.801V29.0383H142.799V23.4422Z" fill="#F3F3E9"/>
<path d="M146.85 22.7812H150.682V23.4422H147.851V25.4691H150.682V26.1301H147.851V28.3773H150.682V29.0383H146.85V22.8253V22.7812Z" fill="#F3F3E9"/>
<path d="M152.206 27.6724V24.1473C152.206 23.1339 152.859 22.7373 154.688 22.7373C156.517 22.7373 157.171 23.1339 157.171 24.1473V25.0727H156.169V23.4423H153.208V28.3775H156.169V26.7471H157.171V27.6724C157.171 28.6859 156.517 29.0825 154.688 29.0825C152.859 29.0825 152.206 28.6859 152.206 27.6724Z" fill="#F3F3E9"/>
<path d="M158.913 22.7812H159.915V25.4691H162.745V22.7812H163.747V28.9942H162.745V26.086H159.915V28.9942H158.913V22.7812Z" fill="#F3F3E9"/>
<path d="M165.532 22.7814H167.318L169.103 27.0115C169.278 27.4521 169.495 27.9368 169.669 28.3775H169.887V22.7814H170.802V28.9943H169.016L167.231 24.7642C167.057 24.3236 166.839 23.8389 166.665 23.3983H166.447V28.9943H165.532V22.7814Z" fill="#F3F3E9"/>
<path d="M172.587 27.6724V24.1473C172.587 23.1339 173.24 22.7373 175.113 22.7373C176.985 22.7373 177.639 23.1339 177.639 24.1473V27.6724C177.639 28.6859 176.985 29.0825 175.113 29.0825C173.24 29.0825 172.587 28.6859 172.587 27.6724ZM176.637 28.3775V23.4423H173.589V28.3775H176.637Z" fill="#F3F3E9"/>
<path d="M179.381 22.7814H180.383V28.3775H183.126V29.0384H179.381V22.8254V22.7814Z" fill="#F3F3E9"/>
<path d="M184.259 27.6724V24.1473C184.259 23.1339 184.912 22.7373 186.785 22.7373C188.657 22.7373 189.31 23.1339 189.31 24.1473V27.6724C189.31 28.6859 188.657 29.0825 186.785 29.0825C184.912 29.0825 184.259 28.6859 184.259 27.6724ZM188.309 28.3775V23.4423H185.26V28.3775H188.309Z" fill="#F3F3E9"/>
<path d="M191.096 27.6724V24.1473C191.096 23.1339 191.749 22.7373 193.578 22.7373C195.407 22.7373 196.061 23.1339 196.061 24.1473V24.8083H195.059V23.4423H192.098V28.3775H195.059V26.5708H193.578V25.9099H196.061V29.0384H195.494L195.277 28.5978C194.841 28.9503 194.188 29.1265 193.448 29.1265C191.88 29.1265 191.139 28.73 191.139 27.7165L191.096 27.6724Z" fill="#F3F3E9"/>
<path d="M197.934 22.7812H198.935V28.9942H197.934V22.7812Z" fill="#F3F3E9"/>
<path d="M200.808 22.7814H204.64V23.4423H201.809V25.4693H204.64V26.1302H201.809V28.3775H204.64V29.0384H200.808V22.8254V22.7814Z" fill="#F3F3E9"/>
<path d="M206.469 27.6724V26.9674H207.47V28.3775H210.214V26.7471L206.469 25.4693V24.1473C206.469 23.1339 207.122 22.7373 208.82 22.7373C210.519 22.7373 211.172 23.1339 211.172 24.1473V24.8524H210.17V23.4423H207.427V25.0727L211.172 26.3505V27.6724C211.172 28.6859 210.519 29.0825 208.82 29.0825C207.122 29.0825 206.469 28.6859 206.469 27.6724Z" fill="#F3F3E9"/>
</g>
<defs>
<clipPath id="clip0_4694_497">
<rect width="212" height="36" fill="white"/>
</clipPath>
</defs>
</svg>
